<?xml version="1.0" encoding="UTF-8"?>
<svg version="1.1" viewBox="0 0 177.17 177.17" xmlns="http://www.w3.org/2000/svg" xmlns:xlink="http://www.w3.org/1999/xlink">
 <defs>
  <linearGradient id="ay">
   <stop stop-color="#949494" offset="0"/>
   <stop stop-color="#d9d9d9" offset=".39231"/>
   <stop stop-color="#c4c4c4" offset=".75361"/>
   <stop stop-color="#a5a5a5" offset="1"/>
  </linearGradient>
  <linearGradient id="ax">
   <stop stop-color="#cdcdcd" offset="0"/>
   <stop stop-color="#adadad" offset=".58007"/>
   <stop stop-color="#e7e7e7" offset="1"/>
  </linearGradient>
  <linearGradient id="a">
   <stop stop-color="#606060" offset="0"/>
   <stop stop-color="#b8b8b8" offset="1"/>
  </linearGradient>
  <clipPath id="br">
   <path d="m165.5 88.562c-3.1917 0.20926-16.799 1.0125-17.656 1.0625-1.9828 0.70668-3.125 1.2188-3.125 1.2188l-64.75-1.1562-0.03125 4.4375 0.03125 4.4688 64.75-1.1875s1.1422 0.51207 3.125 1.2188c0.85754 0.04999 14.465 0.85324 17.656 1.0625 0.25068-0.09186 0.45747-0.31705 0.5625-0.5625-0.0165-1.3776 0-5 0-5s-0.0165-3.6224 0-5c-0.10503-0.24545-0.31182-0.47064-0.5625-0.5625z" fill="#dfdfdf"/>
  </clipPath>
  <radialGradient id="bp" cx="72.312" cy="94.103" r="8" gradientTransform="matrix(1 0 0 .98764 0 1.1636)" gradientUnits="userSpaceOnUse">
   <stop stop-color="#424242" offset="0"/>
   <stop stop-color="#424242" offset=".47329"/>
   <stop stop-color="#2c2c2c" offset=".62398"/>
   <stop stop-color="#373737" offset="1"/>
  </radialGradient>
  <linearGradient id="az" x1="149.98" x2="150.99" y1="89.469" y2="89.469" gradientUnits="userSpaceOnUse" xlink:href="#ax"/>
  <linearGradient id="ba" x1="149.22" x2="151.74" y1="87.932" y2="87.932" gradientUnits="userSpaceOnUse" xlink:href="#ay"/>
  <linearGradient id="bb" x1="155.36" x2="156.37" y1="89.06" y2="89.06" gradientUnits="userSpaceOnUse" xlink:href="#ax"/>
  <linearGradient id="bc" x1="154.6" x2="157.12" y1="87.523" y2="87.523" gradientUnits="userSpaceOnUse" xlink:href="#ay"/>
  <linearGradient id="bd" x1="160.61" x2="161.63" y1="88.928" y2="88.928" gradientTransform="translate(0 -.13281)" gradientUnits="userSpaceOnUse" xlink:href="#ax"/>
  <linearGradient id="be" x1="159.86" x2="162.38" y1="87.391" y2="87.391" gradientTransform="translate(0 -.13281)" gradientUnits="userSpaceOnUse" xlink:href="#ay"/>
  <linearGradient id="bs" x1="55.154" x2="55.154" y1="124.49" y2="65.602" gradientUnits="userSpaceOnUse">
   <stop stop-color="#bf9c78" offset="0"/>
   <stop stop-color="#f1c799" offset="1"/>
  </linearGradient>
  <linearGradient id="bt" x1="20.366" x2="95.031" y1="94.129" y2="94.129" gradientUnits="userSpaceOnUse">
   <stop stop-color="#b29270" offset="0"/>
   <stop stop-color="#b29270" stop-opacity="0" offset="1"/>
  </linearGradient>
  <linearGradient id="bu" x1="61.817" x2="61.817" y1="125.6" y2="64.517" gradientUnits="userSpaceOnUse">
   <stop stop-color="#886f55" offset="0"/>
   <stop stop-color="#d4af85" offset="1"/>
  </linearGradient>
  <linearGradient id="bv" x1="158.99" x2="158.99" y1="88.399" y2="100.21" gradientUnits="userSpaceOnUse">
   <stop stop-color="#776965" offset="0"/>
   <stop stop-color="#5d524f" offset="1"/>
  </linearGradient>
  <linearGradient id="bw" x1="113.06" x2="113.06" y1="90.278" y2="97.989" gradientTransform="matrix(1.0082 0 0 1 -1.1844 0)" gradientUnits="userSpaceOnUse">
   <stop stop-color="#5b6768" offset="0"/>
   <stop stop-color="#3e4647" offset="1"/>
  </linearGradient>
  <radialGradient id="ar" cx="150.92" cy="90.943" r=".97227" gradientUnits="userSpaceOnUse">
   <stop stop-color="#9d9d9d" offset="0"/>
   <stop stop-color="#d4d4d4" offset=".86364"/>
   <stop stop-color="#d4d4d4" offset=".92614"/>
   <stop stop-color="#8e8e8e" offset="1"/>
  </radialGradient>
  <linearGradient id="bx" x1="81.938" x2="82.281" y1="94.125" y2="94.125" gradientUnits="userSpaceOnUse" xlink:href="#a"/>
  <linearGradient id="by" x1="83.688" x2="84.031" y1="94.125" y2="94.125" gradientUnits="userSpaceOnUse" xlink:href="#a"/>
  <linearGradient id="bz" x1="85.531" x2="85.875" y1="94.125" y2="94.125" gradientUnits="userSpaceOnUse" xlink:href="#a"/>
  <linearGradient id="ca" x1="87.469" x2="87.812" y1="94.125" y2="94.125" gradientUnits="userSpaceOnUse" xlink:href="#a"/>
  <linearGradient id="cb" x1="89.5" x2="89.844" y1="94.125" y2="94.125" gradientUnits="userSpaceOnUse" xlink:href="#a"/>
  <linearGradient id="cc" x1="91.688" x2="92.031" y1="94.125" y2="94.125" gradientUnits="userSpaceOnUse" xlink:href="#a"/>
  <linearGradient id="cd" x1="93.969" x2="94.312" y1="94.125" y2="94.125" gradientUnits="userSpaceOnUse" xlink:href="#a"/>
  <linearGradient id="ce" x1="96.438" x2="96.781" y1="94.125" y2="94.125" gradientUnits="userSpaceOnUse" xlink:href="#a"/>
  <linearGradient id="cf" x1="98.969" x2="99.312" y1="94.125" y2="94.125" gradientUnits="userSpaceOnUse" xlink:href="#a"/>
  <linearGradient id="cg" x1="101.66" x2="102" y1="94.125" y2="94.125" gradientUnits="userSpaceOnUse" xlink:href="#a"/>
  <linearGradient id="ch" x1="104.59" x2="104.94" y1="94.125" y2="94.125" gradientUnits="userSpaceOnUse" xlink:href="#a"/>
  <linearGradient id="ci" x1="107.62" x2="107.97" y1="94.125" y2="94.125" gradientUnits="userSpaceOnUse" xlink:href="#a"/>
  <linearGradient id="bg" x1="110.88" x2="111.22" y1="94.125" y2="94.125" gradientUnits="userSpaceOnUse" xlink:href="#a"/>
  <linearGradient id="bh" x1="114.28" x2="114.62" y1="94.125" y2="94.125" gradientUnits="userSpaceOnUse" xlink:href="#a"/>
  <linearGradient id="bi" x1="117.91" x2="118.25" y1="94.125" y2="94.125" gradientUnits="userSpaceOnUse" xlink:href="#a"/>
  <linearGradient id="bj" x1="121.72" x2="122.06" y1="94.125" y2="94.125" gradientUnits="userSpaceOnUse" xlink:href="#a"/>
  <linearGradient id="bf" x1="125.81" x2="126.16" y1="94.125" y2="94.125" gradientUnits="userSpaceOnUse" xlink:href="#a"/>
  <linearGradient id="bk" x1="130.06" x2="130.41" y1="94.125" y2="94.125" gradientUnits="userSpaceOnUse" xlink:href="#a"/>
  <linearGradient id="bl" x1="134.62" x2="134.97" y1="94.125" y2="94.125" gradientUnits="userSpaceOnUse" xlink:href="#a"/>
  <linearGradient id="bm" x1="139.44" x2="139.78" y1="94.125" y2="94.125" gradientUnits="userSpaceOnUse" xlink:href="#a"/>
  <linearGradient id="bn" x1="51.354" x2="51.354" y1="82.855" y2="105.35" gradientUnits="userSpaceOnUse">
   <stop stop-color="#464646" offset="0"/>
   <stop stop-color="#727272" offset=".22839"/>
   <stop stop-color="#5c5c5c" offset=".2532"/>
   <stop stop-color="#464646" offset=".5"/>
   <stop stop-color="#464646" offset=".75465"/>
   <stop stop-color="#373737" offset=".77848"/>
   <stop stop-color="#464646" offset="1"/>
  </linearGradient>
  <radialGradient id="as" cx="50.891" cy="89.993" r=".65625" gradientUnits="userSpaceOnUse">
   <stop stop-color="#cecece" stop-opacity=".95686" offset="0"/>
   <stop stop-color="#cecece" stop-opacity=".95652" offset=".77538"/>
   <stop stop-color="#f6f6f6" stop-opacity="0" offset="1"/>
  </radialGradient>
  <radialGradient id="bq" cx="50.891" cy="89.993" r=".65625" gradientUnits="userSpaceOnUse">
   <stop stop-color="#1a1a1a" offset="0"/>
   <stop stop-color="#6a6a6a" stop-opacity=".49804" offset=".82732"/>
   <stop stop-color="#b4b4b4" stop-opacity="0" offset="1"/>
  </radialGradient>
  <radialGradient id="at" cx="50.891" cy="89.993" r=".65625" gradientUnits="userSpaceOnUse">
   <stop stop-color="#212121" offset="0"/>
   <stop stop-color="#393939" offset=".41491"/>
   <stop stop-color="#b4b4b4" stop-opacity="0" offset="1"/>
  </radialGradient>
  <radialGradient id="av" cx="50.891" cy="89.993" r=".65625" gradientUnits="userSpaceOnUse">
   <stop stop-color="#212121" offset="0"/>
   <stop stop-color="#6a6a6a" stop-opacity=".49804" offset=".5"/>
   <stop stop-color="#b4b4b4" stop-opacity="0" offset="1"/>
  </radialGradient>
  <linearGradient id="bo" x1="48.262" x2="48.925" y1="96.202" y2="96.202" gradientUnits="userSpaceOnUse">
   <stop stop-color="#898989" offset="0"/>
   <stop stop-color="#c2c2c2" offset=".5942"/>
   <stop stop-color="#a4a4a4" offset="1"/>
  </linearGradient>
  <radialGradient id="au" cx="150.92" cy="90.943" r=".97227" gradientUnits="userSpaceOnUse">
   <stop stop-color="#fff" offset="0"/>
   <stop stop-color="#d0d0d0" offset=".75823"/>
   <stop stop-color="#a6a6a6" offset="1"/>
  </radialGradient>
 </defs>
 <g transform="translate(-4.5946 -5.5458)">
  <path transform="matrix(1.6645 0 0 1.6645 -47.895 -61.934)" d="m80.312 94.103c0 4.4183-3.5817 8-8 8s-8-3.5817-8-8 3.5817-8 8-8 8 3.5817 8 8z" fill="url(#bp)"/>
  <path d="m149.98 88.959v1.0195h1.0138v-1.0195h-1.0138z" fill="url(#az)"/>
  <path d="m150.5 86.854c-0.58793 0-1.0102 0.26121-1.2744 0.5625v1.0938l0.75306 0.5h1.0138l0.75306-0.5v-1.0938c-0.26417-0.30129-0.65752-0.5625-1.2454-0.5625z" fill="url(#ba)"/>
  <path d="m155.36 88.551v1.0195h1.0138v-1.0195h-1.0138z" fill="url(#bb)"/>
  <path d="m155.88 86.445c-0.58793 0-1.0102 0.26121-1.2744 0.5625v1.0938l0.75306 0.5h1.0138l0.75306-0.5v-1.0938c-0.26417-0.30129-0.65752-0.5625-1.2454-0.5625z" fill="url(#bc)"/>
  <path d="m160.61 88.285v1.0195h1.0138v-1.0195h-1.0138z" fill="url(#bd)"/>
  <path d="m161.14 86.18c-0.58793 0-1.0102 0.26121-1.2744 0.5625v1.0938l0.75306 0.5h1.0138l0.75306-0.5v-1.0938c-0.26417-0.30129-0.65752-0.5625-1.2454-0.5625z" fill="url(#be)"/>
  <g transform="matrix(1 0 0 -1 0 188.24)">
   <path d="m149.98 88.959v1.0195h1.0138v-1.0195h-1.0138z" fill="url(#az)"/>
   <path d="m150.5 86.854c-0.58793 0-1.0102 0.26121-1.2744 0.5625v1.0938l0.75306 0.5h1.0138l0.75306-0.5v-1.0938c-0.26417-0.30129-0.65752-0.5625-1.2454-0.5625z" fill="url(#ba)"/>
   <path d="m155.36 88.551v1.0195h1.0138v-1.0195h-1.0138z" fill="url(#bb)"/>
   <path d="m155.88 86.445c-0.58793 0-1.0102 0.26121-1.2744 0.5625v1.0938l0.75306 0.5h1.0138l0.75306-0.5v-1.0938c-0.26417-0.30129-0.65752-0.5625-1.2454-0.5625z" fill="url(#bc)"/>
   <path d="m160.61 88.285v1.0195h1.0138v-1.0195h-1.0138z" fill="url(#bd)"/>
   <path d="m161.14 86.18c-0.58793 0-1.0102 0.26121-1.2744 0.5625v1.0938l0.75306 0.5h1.0138l0.75306-0.5v-1.0938c-0.26417-0.30129-0.65752-0.5625-1.2454-0.5625z" fill="url(#be)"/>
  </g>
  <path d="m39.906 65.656c-0.68492 0.0057-1.364 0.04124-2.0625 0.125-18.464 2.2144-17.469 28.344-17.469 28.344s-0.99567 26.13 17.469 28.344c11.175 1.3402 20.518-7.89 31.312-8.9688 6.4769-0.64672 10.408 2.7244 17.594 0 7.3755-2.7962 8.2812-12.602 8.2812-19.375 0-6.7733-0.90573-16.579-8.2812-19.375-7.1862-2.7244-11.117 0.64722-17.594 0-10.12-1.0114-18.976-9.1791-29.25-9.0938zm32.562 21.219c4.0041 0 7.25 3.2459 7.25 7.25s-3.2459 7.25-7.25 7.25-7.25-3.2459-7.25-7.25 3.2459-7.25 7.25-7.25z" fill="url(#bs)" stroke="url(#bt)" stroke-width=".394"/>
  <path d="m39.906 65.469c-0.69065 0.0057-1.3868 0.04023-2.0938 0.125-4.6618 0.55907-8.0947 2.6154-10.625 5.4062s-4.1522 6.2954-5.1875 9.7188c-2.0705 6.8468-1.8125 13.406-1.8125 13.406s-0.25801 6.5594 1.8125 13.406c1.0353 3.4234 2.6572 6.9279 5.1875 9.7188s5.9632 4.8473 10.625 5.4062c5.6472 0.67724 10.818-1.316 15.906-3.5938s10.121-4.8406 15.469-5.375c3.2008-0.31961 5.7653 0.35784 8.4688 0.78125s5.5268 0.59472 9.1562-0.78125c3.7566-1.4242 5.8723-4.6312 7.0312-8.3125s1.375-7.8546 1.375-11.25-0.21602-7.5687-1.375-11.25-3.2746-6.8883-7.0312-8.3125c-3.6294-1.376-6.4528-1.2047-9.1562-0.78125s-5.2679 1.1011-8.4688 0.78125c-5.0135-0.50102-9.7649-2.7784-14.531-4.9375s-9.5604-4.1994-14.75-4.1562zm0 0.375c5.0842-0.04226 9.8335 1.9687 14.594 4.125s9.5184 4.4584 14.625 4.9688c3.276 0.32737 5.9161-0.36182 8.5938-0.78125s5.412-0.56718 8.9688 0.78125c3.6189 1.372 5.6435 4.4486 6.7812 8.0625s1.375 7.7472 1.375 11.125-0.23724 7.5111-1.375 11.125-3.1624 6.6905-6.7812 8.0625c-3.5568 1.3484-6.2911 1.2006-8.9688 0.78125s-5.3177-1.1084-8.5938-0.78125c-5.4471 0.54436-10.487 3.1342-15.562 5.4062s-10.159 4.2255-15.688 3.5625c-4.5704-0.54799-7.9301-2.5813-10.406-5.3125s-4.0699-6.1767-5.0938-9.5625c-2.0478-6.7716-1.8125-13.281-1.8125-13.281s-0.23526-6.5097 1.8125-13.281c1.0239-3.3858 2.6176-6.8313 5.0938-9.5625s5.8358-4.7644 10.406-5.3125c0.69001-0.08275 1.3521-0.11935 2.0312-0.125zm32.562 20.844c-4.1105 0-7.4375 3.327-7.4375 7.4375s3.327 7.4375 7.4375 7.4375 7.4375-3.327 7.4375-7.4375-3.327-7.4375-7.4375-7.4375zm0 0.375c3.8976 0 7.0625 3.1649 7.0625 7.0625s-3.1649 7.0625-7.0625 7.0625-7.0625-3.1649-7.0625-7.0625 3.1649-7.0625 7.0625-7.0625z" color="#000000" fill="url(#bu)" style="block-progression:tb;text-indent:0;text-transform:none"/>
  <path d="m72.469 85.834c-4.5716 0-8.2821 3.7106-8.2821 8.2821s3.7106 8.2821 8.2821 8.2821c4.5716 0 8.2821-3.7105 8.2821-8.2821s-3.7106-8.2821-8.2821-8.2821zm0 0.31732c4.4014 0 7.9648 3.5635 7.9648 7.9648s-3.5635 7.9648-7.9648 7.9648c-4.4014 0-7.9648-3.5635-7.9648-7.9648s3.5635-7.9648 7.9648-7.9648z" color="#000000" fill="#585e5e" style="block-progression:tb;text-indent:0;text-transform:none"/>
  <path d="m72.469 85.244c-4.8972 0-8.8708 3.9736-8.8708 8.8708s3.9736 8.8708 8.8708 8.8708 8.8708-3.9736 8.8708-8.8708-3.9736-8.8708-8.8708-8.8708zm0 0.13753c4.8253 0 8.7332 3.908 8.7332 8.7332 0 4.8253-3.908 8.7332-8.7332 8.7332s-8.7332-3.908-8.7332-8.7332c0-4.8253 3.908-8.7332 8.7332-8.7332z" color="#000000" fill="#a98b6b" style="block-progression:tb;text-indent:0;text-transform:none"/>
  <path d="m72.469 84.822c-5.1301 0-9.2928 4.1626-9.2928 9.2928 0 5.1301 4.1626 9.2927 9.2928 9.2927 5.1301 0 9.2928-4.1626 9.2928-9.2927s-4.1626-9.2928-9.2928-9.2928zm0 0.14407c5.0548 0 9.1487 4.0939 9.1487 9.1487s-4.0939 9.1487-9.1487 9.1487-9.1487-4.0939-9.1487-9.1487 4.0939-9.1487 9.1487-9.1487z" color="#000000" fill="#a98b6b" style="block-progression:tb;text-indent:0;text-transform:none"/>
  <path d="m72.469 84.957c-5.0705 0-9.1927 4.0869-9.1927 9.1574s4.1222 9.1927 9.1927 9.1927 9.1927-4.1222 9.1927-9.1927-4.1222-9.1574-9.1927-9.1574zm0 0.31699c4.8889 0 8.8404 3.9515 8.8404 8.8404s-3.9515 8.8757-8.8404 8.8757-8.8404-3.9868-8.8404-8.8757 3.9515-8.8404 8.8404-8.8404z" color="#000000" fill="#5c4b3a" style="block-progression:tb;text-indent:0;text-transform:none"/>
  <path d="m72.469 83.953c-5.6145 0-10.16 4.5458-10.16 10.16s4.5458 10.2 10.16 10.2 10.16-4.5851 10.16-10.2-4.5458-10.16-10.16-10.16zm0 0.2746c5.4783 0 9.9249 4.4074 9.9249 9.8857s-4.4466 9.9249-9.9249 9.9249-9.9249-4.4466-9.9249-9.9249 4.4466-9.8857 9.9249-9.8857z" color="#000000" fill="#8e755a" style="block-progression:tb;text-indent:0;text-transform:none"/>
  <path d="m165.62 88.562c-3.1917 0.20926-16.799 1.0125-17.656 1.0625-1.9828 0.70667-3.125 1.2188-3.125 1.2188l-64.75-1.1562-0.03125 4.4375 0.03125 4.4688 64.75-1.1875s1.1422 0.51207 3.125 1.2188c0.85754 0.05 14.465 0.85323 17.656 1.0625 0.25068-0.0919 0.45747-0.31705 0.5625-0.5625-0.0165-1.3776 0-5 0-5s-0.0165-3.6224 0-5c-0.10503-0.24545-0.31182-0.47064-0.5625-0.5625z" fill="#dfdfdf"/>
  <path d="m165.62 88.562c-3.1917 0.20926-16.799 1.0125-17.656 1.0625-1.3696 0.48811-2.6569 1.0209-3.125 1.2188v6.5625c0.46807 0.19781 1.7554 0.73064 3.125 1.2188 0.85754 0.05 14.465 0.85323 17.656 1.0625 0.25068-0.0919 0.45747-0.31705 0.5625-0.5625-0.0165-1.3776 0-5 0-5s-0.0165-3.6224 0-5c-0.10503-0.24545-0.31182-0.47064-0.5625-0.5625z" fill="url(#bv)"/>
  <path d="m144.84 97.406v-6.5625l-65.279-1.1562-0.03151 4.4375 0.03151 4.4688z" fill="url(#bw)"/>
  <path transform="translate(0 .45849)" d="m151.9 90.943c0 0.53697-0.4353 0.97227-0.97227 0.97227s-0.97227-0.4353-0.97227-0.97227 0.4353-0.97227 0.97227-0.97227 0.97227 0.4353 0.97227 0.97227z" fill="url(#ar)"/>
  <path transform="translate(5.1707 .65849)" d="m151.9 90.943c0 0.53697-0.4353 0.97227-0.97227 0.97227s-0.97227-0.4353-0.97227-0.97227 0.4353-0.97227 0.97227-0.97227 0.97227 0.4353 0.97227 0.97227z" fill="url(#ar)"/>
  <path transform="translate(10.474 .45849)" d="m151.9 90.943c0 0.53697-0.4353 0.97227-0.97227 0.97227s-0.97227-0.4353-0.97227-0.97227 0.4353-0.97227 0.97227-0.97227 0.97227 0.4353 0.97227 0.97227z" fill="url(#ar)"/>
  <path transform="matrix(1 0 0 -1 0 187.79)" d="m151.9 90.943c0 0.53697-0.4353 0.97227-0.97227 0.97227s-0.97227-0.4353-0.97227-0.97227 0.4353-0.97227 0.97227-0.97227 0.97227 0.4353 0.97227 0.97227z" fill="url(#ar)"/>
  <path transform="matrix(1 0 0 -1 5.1707 187.59)" d="m151.9 90.943c0 0.53697-0.4353 0.97227-0.97227 0.97227s-0.97227-0.4353-0.97227-0.97227 0.4353-0.97227 0.97227-0.97227 0.97227 0.4353 0.97227 0.97227z" fill="url(#ar)"/>
  <path transform="matrix(1 0 0 -1 10.474 187.79)" d="m151.9 90.943c0 0.53697-0.4353 0.97227-0.97227 0.97227s-0.97227-0.4353-0.97227-0.97227 0.4353-0.97227 0.97227-0.97227 0.97227 0.4353 0.97227 0.97227z" fill="url(#ar)"/>
  <g fill="#c8c8c8">
   <path transform="matrix(1.11 0 0 1.11 -9.6836 -10.229)" d="m88.996 94.069c0 0.21967-0.17808 0.39775-0.39775 0.39775s-0.39775-0.17808-0.39775-0.39775 0.17808-0.39775 0.39775-0.39775 0.39775 0.17808 0.39775 0.39775z"/>
   <path transform="matrix(1.11 0 0 1.11 -5.3398 -10.229)" d="m88.996 94.069c0 0.21967-0.17808 0.39775-0.39775 0.39775s-0.39775-0.17808-0.39775-0.39775 0.17808-0.39775 0.39775-0.39775 0.39775 0.17808 0.39775 0.39775z"/>
   <path transform="matrix(1.11 0 0 1.11 2.1446 -12.152)" d="m88.996 94.069c0 0.21967-0.17808 0.39775-0.39775 0.39775s-0.39775-0.17808-0.39775-0.39775 0.17808-0.39775 0.39775-0.39775 0.39775 0.17808 0.39775 0.39775z"/>
   <path transform="matrix(1.2765 0 0 1.2765 -3.6696 -25.9)" d="m88.996 94.069c0 0.21967-0.17808 0.39775-0.39775 0.39775s-0.39775-0.17808-0.39775-0.39775 0.17808-0.39775 0.39775-0.39775 0.39775 0.17808 0.39775 0.39775z"/>
   <path transform="matrix(1.11 0 0 1.11 17.926 -12.039)" d="m88.996 94.069c0 0.21967-0.17808 0.39775-0.39775 0.39775s-0.39775-0.17808-0.39775-0.39775 0.17808-0.39775 0.39775-0.39775 0.39775 0.17808 0.39775 0.39775z"/>
   <path transform="matrix(1.2765 0 0 1.2765 10.846 -25.954)" d="m88.996 94.069c0 0.21967-0.17808 0.39775-0.39775 0.39775s-0.39775-0.17808-0.39775-0.39775 0.17808-0.39775 0.39775-0.39775 0.39775 0.17808 0.39775 0.39775z"/>
   <path transform="matrix(1.11 0 0 1.11 17.926 -8.4687)" d="m88.996 94.069c0 0.21967-0.17808 0.39775-0.39775 0.39775s-0.39775-0.17808-0.39775-0.39775 0.17808-0.39775 0.39775-0.39775 0.39775 0.17808 0.39775 0.39775z"/>
   <path transform="matrix(1.11 0 0 1.11 2.1446 -8.317)" d="m88.996 94.069c0 0.21967-0.17808 0.39775-0.39775 0.39775s-0.39775-0.17808-0.39775-0.39775 0.17808-0.39775 0.39775-0.39775 0.39775 0.17808 0.39775 0.39775z"/>
  </g>
  <g clip-path="url(#br)">
   <path d="m81.938 89.688v8.875h0.34375v-8.875h-0.34375z" color="#000000" fill="url(#bx)" style="block-progression:tb;text-indent:0;text-transform:none"/>
   <path d="m83.688 89.688v8.875h0.34375v-8.875h-0.34375z" color="#000000" fill="url(#by)" style="block-progression:tb;text-indent:0;text-transform:none"/>
   <path d="m85.531 89.688v8.875h0.34375v-8.875h-0.34375z" color="#000000" fill="url(#bz)" style="block-progression:tb;text-indent:0;text-transform:none"/>
   <path d="m87.469 89.688v8.875h0.34375v-8.875h-0.34375z" color="#000000" fill="url(#ca)" style="block-progression:tb;text-indent:0;text-transform:none"/>
   <path d="m89.5 89.688v8.875h0.34375v-8.875h-0.34375z" color="#000000" fill="url(#cb)" style="block-progression:tb;text-indent:0;text-transform:none"/>
   <path d="m91.688 89.688v8.875h0.34375v-8.875h-0.34375z" color="#000000" fill="url(#cc)" style="block-progression:tb;text-indent:0;text-transform:none"/>
   <path d="m93.969 89.688v8.875h0.34375v-8.875h-0.34375z" color="#000000" fill="url(#cd)" style="block-progression:tb;text-indent:0;text-transform:none"/>
   <path d="m96.438 89.688v8.875h0.34375v-8.875h-0.34375z" color="#000000" fill="url(#ce)" style="block-progression:tb;text-indent:0;text-transform:none"/>
   <path d="m98.969 89.688v8.875h0.34375v-8.875h-0.34375z" color="#000000" fill="url(#cf)" style="block-progression:tb;text-indent:0;text-transform:none"/>
   <path d="m101.66 89.688v8.875h0.34375v-8.875h-0.34375z" color="#000000" fill="url(#cg)" style="block-progression:tb;text-indent:0;text-transform:none"/>
   <path d="m104.59 89.688v8.875h0.34375v-8.875h-0.34375z" color="#000000" fill="url(#ch)" style="block-progression:tb;text-indent:0;text-transform:none"/>
   <path d="m107.62 89.688v8.875h0.34375v-8.875h-0.34375z" color="#000000" fill="url(#ci)" style="block-progression:tb;text-indent:0;text-transform:none"/>
   <path d="m110.88 89.688v8.875h0.34375v-8.875h-0.34375z" color="#000000" fill="url(#bg)" style="block-progression:tb;text-indent:0;text-transform:none"/>
   <path d="m114.28 89.688v8.875h0.34375v-8.875h-0.34375z" color="#000000" fill="url(#bh)" style="block-progression:tb;text-indent:0;text-transform:none"/>
   <path d="m117.91 89.688v8.875h0.34375v-8.875h-0.34375z" color="#000000" fill="url(#bi)" style="block-progression:tb;text-indent:0;text-transform:none"/>
   <path d="m121.72 89.688v8.875h0.34375v-8.875h-0.34375z" color="#000000" fill="url(#bj)" style="block-progression:tb;text-indent:0;text-transform:none"/>
   <path d="m125.81 89.688v8.875h0.34375v-8.875h-0.34375z" color="#000000" fill="url(#bf)" style="block-progression:tb;text-indent:0;text-transform:none"/>
   <path d="m125.81 89.688v8.875h0.34375v-8.875h-0.34375z" color="#000000" fill="url(#bf)" style="block-progression:tb;text-indent:0;text-transform:none"/>
   <path d="m130.06 89.688v8.875h0.34375v-8.875h-0.34375z" color="#000000" fill="url(#bk)" style="block-progression:tb;text-indent:0;text-transform:none"/>
   <path d="m134.62 89.688v8.875h0.34375v-8.875h-0.34375z" color="#000000" fill="url(#bl)" style="block-progression:tb;text-indent:0;text-transform:none"/>
   <path d="m139.44 89.688v8.875h0.34375v-8.875h-0.34375z" color="#000000" fill="url(#bm)" style="block-progression:tb;text-indent:0;text-transform:none"/>
  </g>
  <path d="m49.719 82.906c0 3.6189-1.1875 4.2778-1.1875 6.1875v10.062c0 1.9098 1.1875 2.5686 1.1875 6.1875h3.875v-22.438h-3.875z" id="dpath" fill="url(#bn)"/>
  <path transform="translate(.055562 .35028)" d="d" class="prvazica" fill="#cecece"/>
  <path transform="translate(.055562 .35028)" d="m51.547 89.993c0 0.36244-0.29381 0.65625-0.65625 0.65625s-0.65625-0.29381-0.65625-0.65625 0.29381-0.65625 0.65625-0.65625 0.65625 0.29381 0.65625 0.65625z" fill="url(#as)"/>
  <path transform="translate(.055562 1.9128)" d="m51.547 89.993c0 0.36244-0.29381 0.65625-0.65625 0.65625s-0.65625-0.29381-0.65625-0.65625 0.29381-0.65625 0.65625-0.65625 0.65625 0.29381 0.65625 0.65625z" fill="#cecece"/>
  <path transform="translate(.055562 1.9128)" d="m51.547 89.993c0 0.36244-0.29381 0.65625-0.65625 0.65625s-0.65625-0.29381-0.65625-0.65625 0.29381-0.65625 0.65625-0.65625 0.65625 0.29381 0.65625 0.65625z" fill="url(#as)"/>
  <path transform="translate(.055562 3.4753)" d="m51.547 89.993c0 0.36244-0.29381 0.65625-0.65625 0.65625s-0.65625-0.29381-0.65625-0.65625 0.29381-0.65625 0.65625-0.65625 0.65625 0.29381 0.65625 0.65625z" fill="#cecece"/>
  <path transform="translate(.055562 3.4753)" d="m51.547 89.993c0 0.36244-0.29381 0.65625-0.65625 0.65625s-0.65625-0.29381-0.65625-0.65625 0.29381-0.65625 0.65625-0.65625 0.65625 0.29381 0.65625 0.65625z" fill="url(#as)"/>
  <path transform="translate(.055562 5.0378)" d="m51.547 89.993c0 0.36244-0.29381 0.65625-0.65625 0.65625s-0.65625-0.29381-0.65625-0.65625 0.29381-0.65625 0.65625-0.65625 0.65625 0.29381 0.65625 0.65625z" fill="#cecece"/>
  <path transform="translate(.055562 5.0378)" d="m51.547 89.993c0 0.36244-0.29381 0.65625-0.65625 0.65625s-0.65625-0.29381-0.65625-0.65625 0.29381-0.65625 0.65625-0.65625 0.65625 0.29381 0.65625 0.65625z" fill="url(#as)"/>
  <path transform="translate(.055562 6.6003)" d="m51.547 89.993c0 0.36244-0.29381 0.65625-0.65625 0.65625s-0.65625-0.29381-0.65625-0.65625 0.29381-0.65625 0.65625-0.65625 0.65625 0.29381 0.65625 0.65625z" fill="#cecece"/>
  <path transform="translate(.055562 6.6003)" d="m51.547 89.993c0 0.36244-0.29381 0.65625-0.65625 0.65625s-0.65625-0.29381-0.65625-0.65625 0.29381-0.65625 0.65625-0.65625 0.65625 0.29381 0.65625 0.65625z" fill="url(#as)"/>
  <path transform="translate(.055562 8.1628)" d="m51.547 89.993c0 0.36244-0.29381 0.65625-0.65625 0.65625s-0.65625-0.29381-0.65625-0.65625 0.29381-0.65625 0.65625-0.65625 0.65625 0.29381 0.65625 0.65625z" fill="#cecece"/>
  <path transform="translate(.055562 8.1628)" d="m51.547 89.993c0 0.36244-0.29381 0.65625-0.65625 0.65625s-0.65625-0.29381-0.65625-0.65625 0.29381-0.65625 0.65625-0.65625 0.65625 0.29381 0.65625 0.65625z" fill="url(#as)"/>
  <path transform="matrix(-.5 0 0 -.5 76.391 135.34)" d="m51.547 89.993c0 0.36244-0.29381 0.65625-0.65625 0.65625s-0.65625-0.29381-0.65625-0.65625 0.29381-0.65625 0.65625-0.65625 0.65625 0.29381 0.65625 0.65625z" fill="url(#bq)"/>
  <path transform="matrix(-.5 0 0 -.5 76.391 135.34)" d="m51.547 89.993c0 0.36244-0.29381 0.65625-0.65625 0.65625s-0.65625-0.29381-0.65625-0.65625 0.29381-0.65625 0.65625-0.65625 0.65625 0.29381 0.65625 0.65625z" fill="url(#at)"/>
  <path transform="matrix(-.5 0 0 -.5 76.391 136.9)" d="m51.547 89.993c0 0.36244-0.29381 0.65625-0.65625 0.65625s-0.65625-0.29381-0.65625-0.65625 0.29381-0.65625 0.65625-0.65625 0.65625 0.29381 0.65625 0.65625z" fill="url(#av)"/>
  <path transform="matrix(-.5 0 0 -.5 76.391 136.9)" d="m51.547 89.993c0 0.36244-0.29381 0.65625-0.65625 0.65625s-0.65625-0.29381-0.65625-0.65625 0.29381-0.65625 0.65625-0.65625 0.65625 0.29381 0.65625 0.65625z" fill="url(#at)"/>
  <path transform="matrix(-.5 0 0 -.5 76.391 138.47)" d="m51.547 89.993c0 0.36244-0.29381 0.65625-0.65625 0.65625s-0.65625-0.29381-0.65625-0.65625 0.29381-0.65625 0.65625-0.65625 0.65625 0.29381 0.65625 0.65625z" fill="url(#av)"/>
  <path transform="matrix(-.5 0 0 -.5 76.391 138.47)" d="m51.547 89.993c0 0.36244-0.29381 0.65625-0.65625 0.65625s-0.65625-0.29381-0.65625-0.65625 0.29381-0.65625 0.65625-0.65625 0.65625 0.29381 0.65625 0.65625z" fill="url(#at)"/>
  <path transform="matrix(-.5 0 0 -.5 76.391 140.03)" d="m51.547 89.993c0 0.36244-0.29381 0.65625-0.65625 0.65625s-0.65625-0.29381-0.65625-0.65625 0.29381-0.65625 0.65625-0.65625 0.65625 0.29381 0.65625 0.65625z" fill="url(#av)"/>
  <path transform="matrix(-.5 0 0 -.5 76.391 140.03)" d="m51.547 89.993c0 0.36244-0.29381 0.65625-0.65625 0.65625s-0.65625-0.29381-0.65625-0.65625 0.29381-0.65625 0.65625-0.65625 0.65625 0.29381 0.65625 0.65625z" fill="url(#at)"/>
  <path transform="matrix(-.5 0 0 -.5 76.391 141.59)" d="m51.547 89.993c0 0.36244-0.29381 0.65625-0.65625 0.65625s-0.65625-0.29381-0.65625-0.65625 0.29381-0.65625 0.65625-0.65625 0.65625 0.29381 0.65625 0.65625z" fill="url(#av)"/>
  <path transform="matrix(-.5 0 0 -.5 76.391 141.59)" d="m51.547 89.993c0 0.36244-0.29381 0.65625-0.65625 0.65625s-0.65625-0.29381-0.65625-0.65625 0.29381-0.65625 0.65625-0.65625 0.65625 0.29381 0.65625 0.65625z" fill="url(#at)"/>
  <path transform="matrix(-.5 0 0 -.5 76.391 143.15)" d="m51.547 89.993c0 0.36244-0.29381 0.65625-0.65625 0.65625s-0.65625-0.29381-0.65625-0.65625 0.29381-0.65625 0.65625-0.65625 0.65625 0.29381 0.65625 0.65625z" fill="url(#av)"/>
  <path transform="matrix(-.5 0 0 -.5 76.391 143.15)" d="m51.547 89.993c0 0.36244-0.29381 0.65625-0.65625 0.65625s-0.65625-0.29381-0.65625-0.65625 0.29381-0.65625 0.65625-0.65625 0.65625 0.29381 0.65625 0.65625z" fill="url(#at)"/>
  <rect transform="matrix(.99915 -.041298 .041298 .99915 0 0)" x="48.262" y="90.866" width=".66291" height="10.673" ry=".093913" fill="url(#bo)"/>
  <path d="m145.64 90.514c-0.79968 0.33023-0.79828 0.32174-0.79828 0.32174v6.571s1e-3 0 0.79828 0.33542z" fill="#dfdfdf"/>
  <g fill="#978b6a">
   <path d="m50.938 90.25v0.1875l94.094 1.2188v-0.1875l-94.094-1.2188z" color="#000000" style="block-progression:tb;text-indent:0;text-transform:none"/>
   <path d="m50.938 91.812v0.1875l94.094 0.6875v-0.1875l-94.094-0.6875z" color="#000000" style="block-progression:tb;text-indent:0;text-transform:none"/>
   <path d="m50.938 93.375v0.1875l94.094 0.125v-0.15625l-94.094-0.15625z" color="#000000" style="block-progression:tb;text-indent:0;text-transform:none"/>
   <path d="m145.03 94.562-94.094 0.375v0.1875l94.094-0.40625v-0.15625z" color="#000000" style="block-progression:tb;text-indent:0;text-transform:none"/>
   <path d="m145.03 95.594-94.094 0.9375v0.125l94.094-0.90625v-0.15625z" color="#000000" style="block-progression:tb;text-indent:0;text-transform:none"/>
   <path d="m145.03 96.625-94.094 1.4688v0.125l94.094-1.4688v-0.125z" color="#000000" style="block-progression:tb;text-indent:0;text-transform:none"/>
   <path d="m145.03 91.469v0.1875l6.0938 0.21875v-0.21875l-6.0938-0.1875z" color="#000000" style="block-progression:tb;text-indent:0;text-transform:none"/>
   <path d="m156.38 91.844-11.344 0.65625v0.1875l11.344-0.6875v-0.15625z" color="#000000" style="block-progression:tb;text-indent:0;text-transform:none"/>
   <path d="m161.69 91.625-16.656 1.9062v0.15625l16.656-1.9062v-0.15625z" color="#000000" style="block-progression:tb;text-indent:0;text-transform:none"/>
   <path d="m145.03 94.562v0.15625l16.625 1.8438 0.0312-0.15625-16.656-1.8438z" color="#000000" style="block-progression:tb;text-indent:0;text-transform:none"/>
   <path d="m145.03 95.594v0.15625l11.312 0.59375v-0.125l-11.312-0.625z" color="#000000" style="block-progression:tb;text-indent:0;text-transform:none"/>
   <path d="m151.03 96.344-6 0.28125v0.125l6-0.28125v-0.125z" color="#000000" style="block-progression:tb;text-indent:0;text-transform:none"/>
  </g>
  <path transform="matrix(.62234 0 0 .62234 56.998 34.804)" d="m151.9 90.943c0 0.53697-0.4353 0.97227-0.97227 0.97227s-0.97227-0.4353-0.97227-0.97227 0.4353-0.97227 0.97227-0.97227 0.97227 0.4353 0.97227 0.97227z" fill="url(#au)"/>
  <path transform="matrix(.62234 0 0 .62234 62.168 35.004)" d="m151.9 90.943c0 0.53697-0.4353 0.97227-0.97227 0.97227s-0.97227-0.4353-0.97227-0.97227 0.4353-0.97227 0.97227-0.97227 0.97227 0.4353 0.97227 0.97227z" fill="url(#au)"/>
  <path transform="matrix(.62234 0 0 .62234 67.472 34.804)" d="m151.9 90.943c0 0.53697-0.4353 0.97227-0.97227 0.97227s-0.97227-0.4353-0.97227-0.97227 0.4353-0.97227 0.97227-0.97227 0.97227 0.4353 0.97227 0.97227z" fill="url(#au)"/>
  <path transform="matrix(.62234 0 0 -.62234 67.472 153.45)" d="m151.9 90.943c0 0.53697-0.4353 0.97227-0.97227 0.97227s-0.97227-0.4353-0.97227-0.97227 0.4353-0.97227 0.97227-0.97227 0.97227 0.4353 0.97227 0.97227z" fill="url(#au)"/>
  <path transform="matrix(.62234 0 0 -.62234 56.998 153.45)" d="m151.9 90.943c0 0.53697-0.4353 0.97227-0.97227 0.97227s-0.97227-0.4353-0.97227-0.97227 0.4353-0.97227 0.97227-0.97227 0.97227 0.4353 0.97227 0.97227z" fill="url(#au)"/>
  <path transform="matrix(.62234 0 0 -.62234 62.168 153.25)" d="m151.9 90.943c0 0.53697-0.4353 0.97227-0.97227 0.97227s-0.97227-0.4353-0.97227-0.97227 0.4353-0.97227 0.97227-0.97227 0.97227 0.4353 0.97227 0.97227z" fill="url(#au)"/>
 </g>
</svg>